<svg width="182" height="68" viewBox="0 0 182 68" fill="none" xmlns="http://www.w3.org/2000/svg">
<g clip-path="url(#clip0_5_601)">
<path d="M50.5862 23.4483L40.0087 19.931V4.68965L50.5992 7.81609L50.5862 23.4483Z" fill="#F68D11"/>
<path d="M53.3448 7.81609L63.9354 4.68965L63.8985 19.9205L53.3448 23.4483V7.81609Z" fill="#F68D11"/>
<path d="M61.778 3.03928L51.9076 -3.8147e-06L42.1659 3.03928L51.9217 5.64478L61.778 3.03928Z" fill="#F68D11"/>
<path d="M77.2586 23.4483L66.681 19.931V4.68965L77.2715 7.81609L77.2586 23.4483Z" fill="#F68D11"/>
<path d="M80.0172 7.81609L90.6077 4.68965L90.5709 19.9205L80.0172 23.4483V7.81609Z" fill="#F68D11"/>
<path d="M88.4504 3.03928L78.5801 -3.8147e-06L68.8384 3.03928L78.5942 5.64478L88.4504 3.03928Z" fill="#F68D11"/>
<path d="M10.5905 30.092L0 26.9655V42.2069L10.5777 45.7241L10.5905 30.092Z" fill="#F68D11"/>
<path d="M13.3362 30.092L23.9267 26.9655L23.8899 42.1967L13.3362 45.7241V30.092Z" fill="#F68D11"/>
<path d="M21.7694 25.3151L11.899 22.2759L2.15735 25.3151L11.9133 27.9206L21.7694 25.3151Z" fill="#F68D11"/>
<path d="M37.25 45.7241L26.6724 42.2069V26.9655L37.2629 30.092L37.25 45.7241Z" fill="#F68D11"/>
<path d="M40.0087 30.092L50.5992 26.9655L50.5623 42.1967L40.0087 45.7241V30.092Z" fill="#F68D11"/>
<path d="M48.4418 25.3151L38.5714 22.2759L28.8297 25.3151L38.5857 27.9206L48.4418 25.3151Z" fill="#F68D11"/>
<path d="M23.9138 68L13.3362 64.4828V49.2414L23.9267 52.3678L23.9138 68Z" fill="#F68D11"/>
<path d="M26.6724 52.3678L37.2629 49.2414L37.2261 64.4725L26.6724 68V52.3678Z" fill="#F68D11"/>
<path d="M35.1056 47.591L25.2352 44.5517L15.4935 47.591L25.2495 50.1965L35.1056 47.591Z" fill="#F68D11"/>
<path d="M70.7564 54.527L69.9782 54.5298C69.6927 54.5298 69.3287 54.7219 69.2393 55.0335L66.8784 63.3206L64.5433 55.0516C64.4731 54.7923 64.228 54.5298 63.8946 54.5298H62.9732C62.6414 54.5298 62.3993 54.7958 62.3323 55.0569L60.16 63.24L57.9156 55.0315C57.827 54.7314 57.454 54.5298 57.1614 54.5298L56.0415 54.5278C55.8022 54.5278 55.5798 54.6302 55.4606 54.7951C55.3798 54.9068 55.3574 55.0335 55.3947 55.1437L58.8621 67.3743C58.9386 67.6315 59.1622 67.8905 59.4893 67.8905H60.6029C60.9037 67.8905 61.1673 67.6721 61.2434 67.3622L63.3776 59.2151L65.7001 67.3715C65.7699 67.6213 65.9946 67.8905 66.3233 67.8905H67.4189C67.7236 67.8905 67.9802 67.6796 68.0555 67.3704L71.3931 55.1488C71.4323 55.0311 71.4095 54.9003 71.3299 54.79C71.2126 54.6278 70.993 54.527 70.7564 54.527Z" fill="#100F0D"/>
<path d="M80.3851 59.7197H74.5023C74.6376 58.0748 75.7096 56.3693 77.5257 56.3036C79.4583 56.3665 80.3424 58.033 80.3851 59.7197ZM77.5214 54.4395C73.5476 54.4395 71.7378 57.9398 71.7378 61.1918C71.7378 65.2503 73.9877 67.8725 77.4696 67.8725C79.9615 67.8725 81.8611 66.6181 82.6817 64.4264C82.7256 64.3011 82.7119 64.1651 82.6433 64.0431C82.5597 63.895 82.4013 63.7833 82.2138 63.7422L81.1108 63.532C80.8146 63.4857 80.4754 63.6605 80.3632 63.9141C79.8274 65.1319 78.8507 65.8228 77.6249 65.8588C76.4455 65.8225 75.3625 65.1244 74.8663 64.0814C74.4631 63.2294 74.4035 62.3896 74.3968 61.5357L82.3832 61.533C82.5507 61.533 82.7241 61.4595 82.8465 61.336C82.9488 61.2336 83.0045 61.1063 83.0034 60.9788C82.9837 57.8172 81.5336 54.4395 77.5214 54.4395Z" fill="#100F0D"/>
<path d="M92.8286 61.2113C92.8286 61.9601 92.6925 65.699 90.0264 65.7947C89.1329 65.7607 88.23 65.2373 87.7255 64.4637C87.3541 63.8785 87.1372 63.0696 87.0815 62.0688V59.869C87.125 58.1838 88.3155 56.3345 90.0178 56.2629C92.6929 56.3681 92.8286 60.4031 92.8286 61.2113ZM90.4446 54.3261H90.2331C88.914 54.3261 87.8773 54.872 87.0815 55.991L87.0803 50.8351C87.0803 50.5455 86.7802 50.2817 86.4488 50.2817H85.3003C85.0002 50.2817 84.6645 50.5185 84.6637 50.8351V66.93C84.6649 67.2224 84.9649 67.488 85.296 67.488L85.6333 67.4862C85.9518 67.4862 86.1785 67.2305 86.255 66.9929L86.6143 65.8568C87.449 67.0378 88.7061 67.7315 90.0515 67.7315H90.2575C93.8014 67.7315 95.3876 64.2971 95.3876 60.8936C95.3876 59.1994 94.9683 57.5795 94.2375 56.4494C93.393 55.1398 91.9394 54.3261 90.4446 54.3261Z" fill="#100F0D"/>
<path d="M107.963 60.8491C107.216 60.3144 106.319 60.1358 105.419 59.9569L103.694 59.6383C102.457 59.4356 101.741 59.1049 101.741 58.0169C101.741 56.8668 102.937 56.4271 103.951 56.3998C105.19 56.431 106.122 56.9816 106.574 57.9501C106.681 58.1783 106.919 58.3318 107.167 58.3318C107.209 58.3318 107.252 58.3271 107.293 58.3183L108.37 58.0813C108.545 58.0427 108.709 57.9228 108.797 57.7667C108.867 57.6429 108.883 57.5077 108.841 57.3869C108.182 55.4755 106.51 54.4653 103.98 54.4653C101.695 54.4704 99.2523 55.483 99.2523 58.3111C99.2523 60.2441 100.471 61.4716 102.878 61.9601L104.809 62.3266C105.869 62.5287 106.952 62.8882 106.952 64.022C106.952 65.7005 104.992 65.8716 104.399 65.8839C103.07 65.8553 101.564 65.2644 101.199 64.013C101.125 63.7379 100.778 63.5433 100.473 63.6065L99.3472 63.8379C99.1778 63.8735 99.0228 63.9833 98.9326 64.1315C98.8569 64.255 98.8353 64.3933 98.8703 64.5195C99.4512 66.5958 101.463 67.848 104.252 67.869L104.314 67.8695C106.805 67.8695 109.466 66.8068 109.466 63.8259C109.466 62.6124 108.918 61.5275 107.963 60.8491Z" fill="#100F0D"/>
<path d="M119.349 59.7317H113.465C113.599 58.0853 114.671 56.3791 116.488 56.3165C118.419 56.3775 119.305 58.0438 119.349 59.7317ZM116.484 54.4508C112.51 54.4508 110.7 57.9513 110.7 61.203C110.7 65.2613 112.95 67.8832 116.432 67.8832C118.924 67.8832 120.824 66.6287 121.645 64.4374C121.689 64.3119 121.675 64.1756 121.606 64.0533C121.523 63.9051 121.364 63.7933 121.177 63.753L120.072 63.5428C119.814 63.501 119.453 63.6343 119.326 63.9254C118.79 65.1424 117.813 65.8333 116.588 65.8709C115.408 65.8333 114.325 65.1354 113.831 64.0927C113.427 63.2427 113.367 62.4022 113.361 61.5462L121.347 61.5443C121.513 61.5443 121.685 61.4713 121.807 61.3485C121.91 61.2456 121.966 61.1183 121.965 60.9901C121.946 57.8288 120.497 54.4508 116.484 54.4508Z" fill="#100F0D"/>
<path d="M129.506 54.5997C129.35 54.5826 129.2 54.5743 129.055 54.5743C127.715 54.5743 126.626 55.3004 125.871 56.6874L125.873 55.4727C125.872 55.1786 125.578 54.9201 125.243 54.9201H124.246C123.918 54.9201 123.63 55.1796 123.627 55.4774L123.626 67.277C123.626 67.5732 123.915 67.8331 124.244 67.8331L125.408 67.8327C125.711 67.8327 126.051 67.5959 126.054 67.277L126.055 61.3282C126.055 60.3473 126.147 59.6083 126.617 58.7339C127.289 57.4886 128.227 56.8776 129.486 56.8679C129.801 56.8656 130.078 56.5912 130.078 56.2806V55.1769C130.078 54.888 129.826 54.6345 129.506 54.5997Z" fill="#100F0D"/>
<path d="M141.725 54.368L140.806 54.3684C140.518 54.3684 140.149 54.5743 140.059 54.8764L137.08 64.2052L134.038 54.8858C133.948 54.5763 133.578 54.3684 133.289 54.3684L131.976 54.3672C131.735 54.3672 131.502 54.4742 131.383 54.6395C131.303 54.7502 131.281 54.8757 131.321 54.9928L135.485 67.2988C135.565 67.5423 135.777 67.8269 136.112 67.8269H137.701C137.992 67.8269 138.231 67.6292 138.34 67.2978L142.379 54.9968C142.419 54.8799 142.398 54.754 142.318 54.643C142.198 54.4762 141.966 54.368 141.725 54.368Z" fill="#100F0D"/>
<path d="M144.744 49.6377C143.898 49.6377 143.209 50.3254 143.209 51.1716C143.209 52.0176 143.898 52.705 144.744 52.705C145.591 52.705 146.28 52.0176 146.28 51.1716C146.28 50.3254 145.591 49.6377 144.744 49.6377Z" fill="#100F0D"/>
<path d="M145.376 54.293L144.116 54.2917C143.773 54.2917 143.461 54.5681 143.461 54.871L143.454 67.3997C143.454 67.5513 143.533 67.7019 143.669 67.8136C143.793 67.9151 143.952 67.9737 144.111 67.9737L145.381 67.9757H145.382C145.729 67.9727 146.035 67.7038 146.035 67.4005V54.871C146.035 54.563 145.727 54.293 145.376 54.293Z" fill="#100F0D"/>
<path d="M157.154 62.789L156.101 62.793C155.808 62.793 155.561 62.9689 155.452 63.2743C155.068 64.9267 154.197 65.783 152.876 65.8208C150.305 65.7446 150.105 62.1735 150.105 61.0808C150.105 58.9017 150.863 56.5502 152.977 56.4881C154.254 56.5272 155.182 57.439 155.461 58.9248C155.513 59.228 155.747 59.4574 156.066 59.4973L157.192 59.5083C157.529 59.4719 157.793 59.2182 157.79 58.9036C157.392 56.2185 155.524 54.4829 153.029 54.4829L152.942 54.4852L152.845 54.4829C149.215 54.4829 147.59 57.8582 147.59 61.2031C147.59 64.2698 148.96 67.8507 152.824 67.8507H153.009C155.443 67.8507 157.28 66.1512 157.806 63.3955C157.818 63.2642 157.772 63.133 157.679 63.0262C157.558 62.8879 157.365 62.7993 157.154 62.789Z" fill="#100F0D"/>
<path d="M167.547 59.7317H161.662C161.797 58.0849 162.869 56.3791 164.686 56.3165C166.619 56.3775 167.504 58.0438 167.547 59.7317ZM164.683 54.4508C160.708 54.4508 158.899 57.9513 158.899 61.203C158.899 65.2613 161.149 67.8832 164.631 67.8832C167.122 67.8832 169.021 66.6294 169.843 64.4379C169.886 64.3116 169.872 64.1748 169.803 64.0533C169.719 63.904 169.564 63.7949 169.374 63.753L168.271 63.5428C168.012 63.501 167.652 63.6343 167.525 63.9254C166.987 65.1424 166.01 65.8333 164.786 65.8713C163.605 65.8333 162.523 65.1354 162.029 64.0927C161.625 63.2415 161.565 62.4009 161.558 61.5462L169.545 61.545C169.713 61.545 169.886 61.4713 170.009 61.3473C170.111 61.2438 170.166 61.1163 170.164 60.9901C170.145 57.8288 168.696 54.4508 164.683 54.4508Z" fill="#100F0D"/>
<path d="M180.169 60.8491C179.421 60.314 178.522 60.1355 177.624 59.9569L175.899 59.6383C174.663 59.4356 173.947 59.1049 173.947 58.0169C173.947 56.5334 175.795 56.4094 176.155 56.3998C177.395 56.431 178.327 56.9816 178.778 57.9505C178.886 58.1787 179.125 58.3318 179.373 58.3318C179.416 58.3318 179.459 58.3271 179.5 58.3183L180.576 58.0813C180.752 58.0427 180.915 57.9223 181.003 57.7664C181.073 57.6425 181.088 57.5077 181.046 57.3869C180.388 55.4755 178.716 54.4653 176.185 54.4653C173.9 54.4704 171.459 55.483 171.459 58.3111C171.459 60.2445 172.677 61.472 175.084 61.9601L177.015 62.3266C178.075 62.5287 179.159 62.8882 179.159 64.022C179.159 65.7005 177.198 65.8716 176.606 65.8839C175.373 65.8576 173.795 65.3503 173.405 64.0146C173.334 63.7379 172.987 63.5436 172.676 63.6065L171.553 63.8379C171.382 63.874 171.227 63.9845 171.137 64.133C171.062 64.2568 171.04 64.3941 171.076 64.5195C171.655 66.5958 173.666 67.848 176.456 67.869L176.518 67.8695C179.009 67.8695 181.671 66.8068 181.671 63.8259C181.671 62.6116 181.123 61.5264 180.169 60.8491Z" fill="#100F0D"/>
<path fill-rule="evenodd" clip-rule="evenodd" d="M128.936 30.1709V27.3258C128.937 26.8944 129.266 26.6048 129.66 26.6052L142.453 26.6048C142.862 26.6048 143.191 26.9014 143.191 27.3227V29.7625C143.187 30.1709 142.841 30.7049 142.228 31.5529L135.601 40.9794C138.06 40.9212 140.663 41.288 142.897 42.5396C143.402 42.8216 143.536 43.2402 143.577 43.6489V46.6847C143.577 47.1033 143.117 47.587 142.635 47.335C138.697 45.2794 133.472 45.055 129.116 47.3588C128.672 47.5953 128.206 47.119 128.206 46.7004V43.8158C128.206 43.3555 128.215 42.5649 128.682 41.8607L136.36 30.8876L129.676 30.8861C129.267 30.8861 128.94 30.596 128.936 30.1709Z" fill="#100F0D"/>
<path fill-rule="evenodd" clip-rule="evenodd" d="M82.2707 47.9337H78.3777C78.0078 47.9096 77.7117 47.6316 77.6823 47.2771L77.685 27.3743C77.685 26.9761 78.0215 26.658 78.4357 26.658L82.0605 26.656C82.4401 26.6771 82.7437 26.9624 82.7696 27.3243V29.9248H82.8418C83.7855 27.4107 85.5659 26.2398 87.9633 26.2398C90.3972 26.2398 91.9234 27.4107 93.0134 29.9248C93.9587 27.4107 96.1015 26.2398 98.3922 26.2398C100.027 26.2398 101.805 26.9089 102.895 28.4158C104.13 30.092 103.876 32.5195 103.876 34.6564L103.873 47.2167C103.873 47.6138 103.537 47.9337 103.123 47.9337H99.2363C98.8449 47.9096 98.5369 47.5985 98.5369 47.2185V36.6665C98.5369 35.8293 98.6087 33.7344 98.4275 32.9393C98.1361 31.5979 97.2637 31.2231 96.1392 31.2231C95.1935 31.2231 94.2121 31.8514 93.8124 32.8543C93.4131 33.8611 93.45 35.5362 93.45 36.6665V47.2167C93.45 47.6138 93.1138 47.9337 92.6992 47.9337H88.8113C88.4218 47.9096 88.1131 47.5985 88.1131 47.2185L88.108 36.6665C88.108 34.4465 88.4724 31.1812 85.7118 31.1812C82.9144 31.1812 83.0234 34.3633 83.0234 36.6665L83.0211 47.2167C83.0226 47.6138 82.6861 47.9337 82.2707 47.9337Z" fill="#100F0D"/>
<path fill-rule="evenodd" clip-rule="evenodd" d="M154.241 30.3008C151.369 30.3008 151.188 34.1954 151.188 36.6254C151.188 39.054 151.152 44.2469 154.205 44.2469C157.221 44.2469 157.366 40.0587 157.366 37.5043C157.366 35.8293 157.294 33.8196 156.786 32.2279C156.348 30.8453 155.477 30.3008 154.241 30.3008ZM154.205 26.2398C159.982 26.2398 163.107 31.1812 163.107 37.4611C163.107 43.5352 159.654 48.3518 154.205 48.3518C148.537 48.3518 145.448 43.4091 145.448 37.2527C145.448 31.0545 148.572 26.2398 154.205 26.2398Z" fill="#100F0D"/>
<path fill-rule="evenodd" clip-rule="evenodd" d="M170.598 47.9337H166.72C166.33 47.9096 166.022 47.5985 166.022 47.2185L166.016 27.3067C166.048 26.944 166.371 26.658 166.762 26.658L170.374 26.656C170.714 26.6748 170.993 26.9053 171.065 27.2137V30.2591H171.138C172.227 27.5365 173.754 26.2398 176.441 26.2398C178.185 26.2398 179.894 26.8663 180.983 28.5838C182 30.1747 182 32.8543 182 34.7811V47.3061C181.956 47.6591 181.641 47.9337 181.256 47.9337H177.353C176.993 47.9103 176.703 47.6453 176.66 47.3061V36.499C176.66 34.3214 176.915 31.1377 174.225 31.1377C173.281 31.1377 172.41 31.7674 171.973 32.7294C171.428 33.9435 171.356 35.1579 171.356 36.499V47.2167C171.349 47.6138 171.012 47.9337 170.598 47.9337Z" fill="#100F0D"/>
<path fill-rule="evenodd" clip-rule="evenodd" d="M122.661 47.8833C122.403 48.1128 122.034 48.1281 121.743 47.9736C120.45 46.9031 120.218 46.4068 119.512 45.3888C117.375 47.5569 115.862 48.2073 113.096 48.2073C109.818 48.2073 107.27 46.1923 107.27 42.1631C107.27 39.0161 108.98 36.8753 111.42 35.8253C113.532 34.9017 116.481 34.7335 118.738 34.4809V33.9779C118.738 33.055 118.811 31.9632 118.264 31.1662C117.792 30.4527 116.882 30.1596 116.08 30.1596C114.595 30.1596 113.276 30.9178 112.951 32.4887C112.885 32.8375 112.628 33.184 112.275 33.2008L108.504 32.7937C108.184 32.7223 107.831 32.4685 107.923 31.9842C108.79 27.4235 112.923 26.0456 116.627 26.0456C118.519 26.0456 120.996 26.5489 122.489 27.9757C124.381 29.7393 124.199 32.0895 124.199 34.65V40.6913C124.199 42.5086 124.957 43.3062 125.67 44.2856C125.917 44.6389 125.972 45.0575 125.655 45.3165C124.861 45.9802 123.448 47.2014 122.672 47.8919L122.661 47.8833ZM118.738 38.4274C118.738 39.9387 118.774 41.1991 118.009 42.5411C117.39 43.6333 116.407 44.3043 115.314 44.3043C113.823 44.3043 112.949 43.1714 112.949 41.4917C112.949 38.1897 115.923 37.5885 118.738 37.5885V38.4274Z" fill="#100F0D"/>
<path fill-rule="evenodd" clip-rule="evenodd" d="M71.6409 47.8833C71.3836 48.1128 71.0113 48.1281 70.7203 47.9736C69.4279 46.9031 69.1964 46.4068 68.4892 45.3888C66.3539 47.5569 64.8402 48.2073 62.0722 48.2073C58.7954 48.2073 56.2466 46.1923 56.2466 42.1631C56.2466 39.0161 57.9587 36.8753 60.3981 35.8253C62.5103 34.9017 65.4595 34.7335 67.7165 34.4809V33.9779C67.7165 33.055 67.7899 31.9632 67.2431 31.1662C66.77 30.4527 65.8589 30.1596 65.0591 30.1596C63.5744 30.1596 62.2538 30.9178 61.9302 32.4887C61.8627 32.8375 61.6066 33.184 61.2543 33.2008L57.4814 32.7937C57.1629 32.7223 56.8091 32.4685 56.9005 31.9842C57.7673 27.4235 61.9004 26.0456 65.6039 26.0456C67.4984 26.0456 69.9735 26.5489 71.4667 27.9757C73.3601 29.7393 73.1773 32.0895 73.1773 34.65V40.6913C73.1773 42.5086 73.9359 43.3062 74.6466 44.2856C74.8945 44.6389 74.9506 45.0575 74.6345 45.3165C73.839 45.9802 72.4258 47.2014 71.6499 47.8919L71.6409 47.8833ZM67.7165 38.4274C67.7165 39.9387 67.7522 41.1991 66.9889 42.5411C66.3703 43.6333 65.3858 44.3043 64.295 44.3043C62.8005 44.3043 61.9274 43.1714 61.9274 41.4917C61.9274 38.1897 64.9006 37.5885 67.7165 37.5885V38.4274Z" fill="#100F0D"/>
</g>
<defs>
<clipPath id="clip0_5_601">
<rect width="182" height="68" fill="white"/>
</clipPath>
</defs>
</svg>
