<svg width="243" height="50" viewBox="0 0 243 50" fill="none" xmlns="http://www.w3.org/2000/svg">
<path d="M64.1121 40.4348H65.3506V49.9066H64.1121V40.4348Z" fill="#F1647B"/>
<path d="M69.0706 40.4348H75.4835V41.4309H72.9007V49.8978H71.6666V41.4309H69.0706V40.4348Z" fill="#F1647B"/>
<path d="M88.0365 49.9995C86.1369 49.9995 84.7882 48.9417 84.7617 47.355H86.084C86.1677 48.144 86.7231 48.9329 88.0409 48.9329C89.2398 48.9329 89.945 48.2541 89.945 47.355C89.945 44.803 84.8234 46.4338 84.8234 42.9122C84.8234 41.3475 86.084 40.2677 87.9616 40.2677C89.7687 40.2677 90.9499 41.2594 91.0998 42.7006H89.7378C89.6541 42.0615 89.0591 41.3387 87.9043 41.3255C86.8818 41.299 86.0796 41.8279 86.0796 42.8505C86.0796 45.2967 91.1923 43.7717 91.1923 47.2801C91.1923 48.6685 90.0904 49.9995 88.0365 49.9995Z" fill="#F1647B"/>
<path d="M99.5048 49.9991C98.5422 50.0175 97.5959 49.7489 96.7865 49.2274C95.9771 48.706 95.3413 47.9554 94.9601 47.0712C94.5789 46.1871 94.4696 45.2095 94.6461 44.263C94.8226 43.3165 95.2769 42.444 95.9511 41.7566C96.6253 41.0693 97.4889 40.5983 98.4318 40.4036C99.3748 40.2089 100.354 40.2993 101.246 40.6634C102.137 41.0275 102.9 41.6487 103.437 42.4479C103.974 43.2471 104.26 44.188 104.261 45.1508C104.285 45.7861 104.179 46.4197 103.95 47.0127C103.72 47.6057 103.372 48.1457 102.927 48.5996C102.482 49.0534 101.949 49.4117 101.36 49.6523C100.772 49.893 100.14 50.011 99.5048 49.9991ZM99.5048 48.9281C101.501 48.9281 103 47.4736 103 45.164C103 42.8545 101.501 41.3956 99.5048 41.3956C97.5082 41.3956 96.014 42.8369 96.014 45.164C96.014 47.4912 97.5082 48.9237 99.5048 48.9237V48.9281Z" fill="#F1647B"/>
<path d="M109.33 40.4348V48.9237H112.644V49.9286H108.091V40.4348H109.33Z" fill="#F1647B"/>
<path d="M116.135 40.4348H117.369V46.4246C117.369 48.1877 118.308 48.9149 119.709 48.9149C121.111 48.9149 122.032 48.1656 122.032 46.4246V40.4348H123.271V46.4114C123.271 48.8708 121.653 49.9992 119.696 49.9992C117.739 49.9992 116.135 48.8708 116.135 46.4114V40.4348Z" fill="#F1647B"/>
<path d="M126.938 40.4348H133.355V41.4309H130.772V49.8978H129.534V41.4309H126.938V40.4348Z" fill="#F1647B"/>
<path d="M137.075 40.4348H138.313V49.9066H137.075V40.4348Z" fill="#F1647B"/>
<path d="M146.921 49.9991C145.958 50.0175 145.012 49.7489 144.203 49.2274C143.393 48.706 142.758 47.9554 142.376 47.0712C141.995 46.1871 141.886 45.2095 142.062 44.263C142.239 43.3165 142.693 42.444 143.367 41.7566C144.042 41.0693 144.905 40.5983 145.848 40.4036C146.791 40.2089 147.771 40.2993 148.662 40.6634C149.553 41.0275 150.316 41.6487 150.853 42.4479C151.39 43.2471 151.677 44.188 151.677 45.1508C151.701 45.7861 151.595 46.4197 151.366 47.0127C151.137 47.6057 150.789 48.1457 150.343 48.5996C149.898 49.0534 149.365 49.4117 148.777 49.6523C148.188 49.893 147.557 50.011 146.921 49.9991ZM146.921 48.9281C148.918 48.9281 150.416 47.4736 150.416 45.164C150.416 42.8545 148.918 41.3956 146.921 41.3956C144.924 41.3956 143.43 42.8369 143.43 45.164C143.43 47.4912 144.924 48.9237 146.921 48.9237V48.9281Z" fill="#F1647B"/>
<path d="M162.956 40.4174V49.9068H161.717L156.745 42.3611V49.9068H155.507V40.4174H156.745L161.717 47.9499V40.4174H162.956Z" fill="#F1647B"/>
<path d="M170.264 49.9995C168.36 49.9995 167.015 48.9417 166.989 47.355H168.311C168.39 48.144 168.95 48.9329 170.268 48.9329C171.463 48.9329 172.168 48.2541 172.168 47.355C172.168 44.803 167.046 46.4338 167.046 42.9122C167.046 41.3475 168.311 40.2677 170.184 40.2677C171.991 40.2677 173.177 41.2594 173.327 42.7006H171.965C171.886 42.0615 171.286 41.3387 170.131 41.3255C169.113 41.299 168.311 41.8279 168.311 42.8505C168.311 45.2967 173.419 43.7717 173.419 47.2801C173.415 48.6685 172.335 49.9995 170.264 49.9995Z" fill="#F1647B"/>
<path d="M195.391 45.9486H193.571V49.9154H192.332V40.4348H195.391C197.621 40.4348 198.666 41.6557 198.666 43.2027C198.666 44.644 197.745 45.9486 195.391 45.9486ZM195.391 44.9305C196.806 44.9305 197.405 44.2649 197.405 43.2027C197.405 42.1405 196.806 41.4397 195.391 41.4397H193.571V44.9173L195.391 44.9305Z" fill="#F1647B"/>
<path d="M206.441 40.4348H207.763L204.184 49.9066H202.747L199.173 40.4348H200.495L203.47 48.602L206.441 40.4348Z" fill="#F1647B"/>
<path d="M208.23 40.4348H214.648V41.4309H212.065V49.8978H210.831V41.4309H208.235L208.23 40.4348Z" fill="#F1647B"/>
<path d="M216.274 49.9858C216.106 49.9911 215.941 49.9462 215.799 49.857C215.657 49.7677 215.545 49.6382 215.477 49.4849C215.41 49.3316 215.389 49.1616 215.419 48.9966C215.448 48.8315 215.526 48.6791 215.643 48.5587C215.759 48.4383 215.909 48.3555 216.073 48.3208C216.237 48.2861 216.408 48.3011 216.563 48.364C216.718 48.4269 216.852 48.5347 216.945 48.6736C217.039 48.8126 217.089 48.9764 217.089 49.144C217.092 49.3634 217.007 49.5749 216.855 49.7325C216.702 49.8902 216.493 49.9812 216.274 49.9858Z" fill="#F1647B"/>
<path d="M223.022 40.4348V48.9237H226.336V49.9286H221.788V40.4348H223.022Z" fill="#F1647B"/>
<path d="M226.786 40.4348H233.203V41.4309H230.62V49.8978H229.386V41.4309H226.786V40.4348Z" fill="#F1647B"/>
<path d="M242.415 45.1905C242.415 48.126 240.498 49.9066 237.386 49.9066H234.438V40.4348H237.386C240.498 40.4348 242.415 42.2551 242.415 45.1905ZM237.386 48.8885C239.859 48.8885 241.15 47.5001 241.15 45.1905C241.15 42.881 239.859 41.4309 237.386 41.4309H235.676V48.8796L237.386 48.8885Z" fill="#F1647B"/>
<path d="M69.1061 13.9851V21.9187C69.1061 24.0228 69.9419 26.0407 71.4298 27.5286C72.9176 29.0164 74.9355 29.8523 77.0396 29.8523V35.8421C75.2084 35.8714 73.3905 35.5257 71.6978 34.826C70.0052 34.1264 68.4737 33.0877 67.1976 31.7739C65.884 30.4979 64.8457 28.9663 64.1468 27.2736C63.4479 25.5809 63.1031 23.763 63.1338 21.9319V0.0748596H69.0928V8.00844H77.0264V13.9851H69.1061Z" fill="url(#paint0_linear_3_587)"/>
<path d="M105.014 30.562C104.676 30.986 104.314 31.3906 103.93 31.7741C101.317 34.3789 97.7775 35.8416 94.0878 35.8416C90.3981 35.8416 86.8589 34.3789 84.2457 31.7741C82.9315 30.4983 81.8926 28.9669 81.1929 27.2742C80.4932 25.5815 80.1477 23.7634 80.1776 21.9321V8.02185H86.141V21.9321C86.141 24.0397 86.9782 26.061 88.4685 27.5513C89.9589 29.0416 91.9802 29.8789 94.0878 29.8789C96.1954 29.8789 98.2167 29.0416 99.707 27.5513C101.197 26.061 102.035 24.0397 102.035 21.9321V8.02185H107.985V21.9321C107.985 24.0397 108.822 26.061 110.312 27.5513C111.803 29.0416 113.824 29.8789 115.932 29.8789C118.039 29.8789 120.061 29.0416 121.551 27.5513C123.041 26.061 123.878 24.0397 123.878 21.9321V8.02185H129.837V21.9321C129.868 23.7631 129.523 25.5811 128.824 27.2738C128.126 28.9665 127.087 30.4981 125.774 31.7741C123.16 34.3789 119.621 35.8416 115.932 35.8416C112.242 35.8416 108.703 34.3789 106.09 31.7741C105.71 31.3892 105.351 30.9846 105.014 30.562Z" fill="url(#paint1_linear_3_587)"/>
<path d="M136.806 6.03373C136.413 6.03945 136.022 5.96415 135.659 5.8125C135.296 5.66085 134.968 5.4361 134.695 5.15222C134.411 4.87927 134.187 4.55109 134.035 4.18797C133.884 3.82484 133.808 3.43448 133.813 3.04101C133.809 2.64764 133.885 2.25752 134.036 1.8945C134.188 1.53149 134.412 1.20322 134.695 0.929793C135.257 0.373712 136.016 0.0617981 136.806 0.0617981C137.597 0.0617981 138.355 0.373712 138.917 0.929793C139.2 1.20322 139.424 1.53149 139.576 1.8945C139.727 2.25752 139.803 2.64764 139.799 3.04101C139.804 3.43448 139.728 3.82484 139.577 4.18797C139.425 4.55109 139.201 4.87927 138.917 5.15222C138.645 5.43652 138.317 5.66156 137.954 5.81324C137.59 5.96492 137.2 6.03998 136.806 6.03373ZM139.786 8.02154V35.842H133.827V8.02154H139.786Z" fill="url(#paint2_linear_3_587)"/>
<path d="M149.72 0.0748596V35.8421H143.761V0.0748596H149.72Z" fill="url(#paint3_linear_3_587)"/>
<path d="M156.675 6.03373C156.281 6.03945 155.891 5.96415 155.528 5.8125C155.164 5.66085 154.836 5.4361 154.564 5.15222C154.28 4.87927 154.056 4.55109 153.904 4.18797C153.752 3.82484 153.677 3.43448 153.682 3.04101C153.678 2.64764 153.754 2.25752 153.905 1.8945C154.057 1.53149 154.281 1.20322 154.564 0.929793C155.126 0.373712 155.884 0.0617981 156.675 0.0617981C157.465 0.0617981 158.224 0.373712 158.786 0.929793C159.07 1.20258 159.294 1.53073 159.446 1.89389C159.598 2.25706 159.673 2.6475 159.668 3.04101C159.674 3.43463 159.599 3.82531 159.447 4.18858C159.295 4.55186 159.07 4.87992 158.786 5.15222C158.514 5.43652 158.186 5.66156 157.822 5.81324C157.459 5.96492 157.068 6.03998 156.675 6.03373ZM159.654 8.02154V35.842H153.695V8.02154H159.654Z" fill="url(#paint4_linear_3_587)"/>
<path d="M184.637 33.3871C181.948 35.2316 178.699 36.0797 175.452 35.7852C172.204 35.4907 169.161 34.072 166.848 31.774C165.534 30.4982 164.495 28.9667 163.795 27.274C163.095 25.5813 162.75 23.7633 162.78 21.9319C162.749 20.1005 163.095 18.2823 163.794 16.5895C164.494 14.8967 165.533 13.3653 166.848 12.0899C169.461 9.48504 173 8.02237 176.69 8.02237C180.38 8.02237 183.919 9.48504 186.532 12.0899C187.847 13.3653 188.886 14.8967 189.586 16.5895C190.285 18.2823 190.631 20.1005 190.6 21.9319V35.8421C190.603 37.6693 190.244 39.479 189.546 41.1674C188.848 42.8559 187.823 44.39 186.531 45.6818C185.239 46.9736 183.704 47.9977 182.016 48.6954C180.327 49.3932 178.517 49.7509 176.69 49.748V43.7889C178.794 43.7889 180.812 42.9531 182.3 41.4653C183.788 39.9774 184.624 37.9595 184.624 35.8554L184.637 33.3871ZM176.703 29.8611C178.807 29.8611 180.825 29.0252 182.313 27.5374C183.801 26.0496 184.637 24.0316 184.637 21.9275C184.637 19.8199 183.8 17.7986 182.309 16.3083C180.819 14.818 178.798 13.9807 176.69 13.9807C174.582 13.9807 172.561 14.818 171.071 16.3083C169.58 17.7986 168.743 19.8199 168.743 21.9275C168.743 24.0316 169.579 26.0496 171.067 27.5374C172.555 29.0252 174.573 29.8611 176.677 29.8611H176.703Z" fill="url(#paint5_linear_3_587)"/>
<path d="M201.381 21.9319V35.8421H195.422V0.0748596H201.381V10.4767C204.07 8.63225 207.319 7.78413 210.566 8.07863C213.814 8.37312 216.856 9.79176 219.17 12.0898C220.484 13.3653 221.524 14.8967 222.223 16.5895C222.923 18.2822 223.268 20.1005 223.238 21.9319V35.8421H217.292V21.9319C217.292 19.8237 216.455 17.8018 214.964 16.3111C213.473 14.8204 211.451 13.9829 209.343 13.9829C207.235 13.9829 205.213 14.8204 203.722 16.3111C202.232 17.8018 201.394 19.8237 201.394 21.9319H201.381Z" fill="url(#paint6_linear_3_587)"/>
<path d="M234.04 13.9851V21.9187C234.04 24.0228 234.876 26.0407 236.364 27.5286C237.852 29.0164 239.87 29.8523 241.974 29.8523V35.8421C240.143 35.8725 238.324 35.5272 236.632 34.8275C234.939 34.1278 233.407 33.0885 232.132 31.7739C230.818 30.4981 229.779 28.9667 229.079 27.274C228.379 25.5813 228.034 23.7632 228.064 21.9319V0.0748596H234.04V8.00844H241.974V13.9851H234.04Z" fill="url(#paint7_linear_3_587)"/>
<path d="M54.3671 0H52.9788V49.7127H54.3671V0Z" fill="#F1647B"/>
<path d="M40.6113 12.3412C40.8335 12.0259 40.9485 11.6474 40.9392 11.2618C40.9299 10.8761 40.7967 10.5036 40.5595 10.1994C40.3222 9.89514 39.9935 9.67527 39.6217 9.57224C39.2499 9.46921 38.8548 9.48848 38.4948 9.6272C38.1348 9.76592 37.829 10.0167 37.6225 10.3426C37.416 10.6685 37.3197 11.0521 37.348 11.4369C37.3762 11.8217 37.5275 12.1871 37.7794 12.4794C38.0313 12.7716 38.3705 12.975 38.7469 13.0597C39.0938 13.1371 39.456 13.1102 39.7877 12.9824C40.1194 12.8546 40.406 12.6315 40.6113 12.3412Z" fill="url(#paint8_linear_3_587)"/>
<path d="M54.3671 0H52.9788V49.7127H54.3671V0Z" fill="#F1647B"/>
<path d="M40.6113 12.3412C40.8335 12.0259 40.9485 11.6474 40.9392 11.2618C40.9299 10.8761 40.7967 10.5036 40.5595 10.1994C40.3222 9.89514 39.9935 9.67527 39.6217 9.57224C39.2499 9.46921 38.8548 9.48848 38.4948 9.6272C38.1348 9.76592 37.829 10.0167 37.6225 10.3426C37.416 10.6685 37.3197 11.0521 37.348 11.4369C37.3762 11.8217 37.5275 12.1871 37.7794 12.4794C38.0313 12.7716 38.3705 12.975 38.7469 13.0597C39.0938 13.1371 39.456 13.1102 39.7877 12.9824C40.1194 12.8546 40.406 12.6315 40.6113 12.3412Z" fill="url(#paint9_linear_3_587)"/>
<path d="M44.049 13.271C44.0494 13.2637 44.0494 13.2563 44.049 13.249C44.049 13.0154 44.049 5.67242 44.049 5.44764C44.049 5.22286 44.049 5.06418 44.049 4.87907C44.049 3.5568 43.9521 2.3315 43.0485 1.43236C42.2419 0.630191 41.0034 0.29081 39.0817 0.317255L5.09512 0.246735C1.60435 0.246735 0 1.83786 0 5.32864V16.6604V18.0356C0 19.5342 1.04018 21.0768 3.34092 21.0768H6.78321C7.04155 21.0768 7.28931 20.9742 7.47198 20.7915C7.65466 20.6088 7.75728 20.3611 7.75728 20.1027V19.803C7.75786 19.6724 7.73264 19.543 7.68306 19.4222C7.63348 19.3013 7.56053 19.1915 7.46838 19.0989C7.37624 19.0064 7.26672 18.9329 7.14611 18.8828C7.0255 18.8327 6.89619 18.8069 6.76558 18.8069H3.6803C3.28789 18.8046 2.91235 18.6471 2.6357 18.3688C2.35905 18.0905 2.20377 17.714 2.20377 17.3216V5.32864C2.20377 3.04112 2.80761 2.42847 5.09512 2.42847L39.1038 2.5034C40.6861 2.47695 41.3075 2.74581 41.5279 2.97941C41.9025 3.35406 41.8893 4.30168 41.8761 5.4212C41.8761 5.65479 41.8761 13.0022 41.8761 13.249C41.8761 13.2799 41.8761 13.3019 41.8761 13.3283C41.8757 13.3357 41.8757 13.343 41.8761 13.3504V16.6957C41.8761 18.6659 40.664 18.8995 40.1131 18.8995H35.9788C34.9104 18.8993 33.8846 19.3185 33.1221 20.067C32.3596 20.8154 31.9215 21.8333 31.9018 22.9015L31.8004 28.5608V43.6346C31.8005 43.6466 31.798 43.6584 31.7933 43.6694C31.7886 43.6804 31.7817 43.6903 31.7731 43.6986C31.7644 43.7068 31.7542 43.7132 31.743 43.7174C31.7318 43.7215 31.7198 43.7234 31.7079 43.7228H15.0738C15.0504 43.7228 15.028 43.7135 15.0115 43.697C14.9949 43.6804 14.9857 43.658 14.9857 43.6346V24.81C14.9863 24.664 14.9576 24.5194 14.9012 24.3848C14.8449 24.2501 14.762 24.1282 14.6576 24.0262C14.5531 23.9242 14.4292 23.8443 14.2933 23.7912C14.1573 23.738 14.0121 23.7128 13.8661 23.7169H13.8353C13.5555 23.7204 13.2882 23.8337 13.0911 24.0324C12.8941 24.2311 12.783 24.4993 12.7819 24.7791V45.2742C12.7819 46.4432 13.2463 47.5643 14.0728 48.3908C14.8994 49.2174 16.0205 49.6818 17.1894 49.6818H29.5879C30.7568 49.6818 31.8779 49.2174 32.7045 48.3908C33.531 47.5643 33.9954 46.4432 33.9954 45.2742V28.5608V23.3467C33.9966 22.7408 34.2381 22.1601 34.667 21.732C35.0958 21.304 35.677 21.0636 36.2829 21.0636H40.1087C41.1309 21.0614 42.1141 20.6706 42.859 19.9705C43.2742 19.5364 43.5963 19.0219 43.8055 18.4588C44.0147 17.8956 44.1066 17.2956 44.0755 16.6957V13.3504C44.0692 13.3231 44.0603 13.2966 44.049 13.271ZM23.1484 48.2008C22.7928 48.2008 22.4451 48.0954 22.1494 47.8978C21.8536 47.7002 21.6231 47.4193 21.487 47.0907C21.3509 46.7621 21.3153 46.4006 21.3847 46.0517C21.4541 45.7029 21.6254 45.3825 21.8769 45.131C22.1284 44.8795 22.4488 44.7082 22.7976 44.6388C23.1464 44.5695 23.508 44.6051 23.8366 44.7412C24.1652 44.8773 24.4461 45.1078 24.6436 45.4035C24.8412 45.6992 24.9467 46.0469 24.9467 46.4026C24.9473 46.6389 24.9012 46.873 24.811 47.0914C24.7208 47.3099 24.5884 47.5083 24.4213 47.6754C24.2542 47.8425 24.0557 47.975 23.8373 48.0651C23.6189 48.1553 23.3848 48.2014 23.1484 48.2008Z" fill="url(#paint10_linear_3_587)"/>
<defs>
<linearGradient id="paint0_linear_3_587" x1="70.0978" y1="0.0748596" x2="70.0978" y2="35.8421" gradientUnits="userSpaceOnUse">
<stop stop-color="#F1647B"/>
<stop offset="0.36" stop-color="#F26D77"/>
<stop offset="0.95" stop-color="#F5876D"/>
<stop offset="0.99" stop-color="#F5896C"/>
</linearGradient>
<linearGradient id="paint1_linear_3_587" x1="105.014" y1="8.02185" x2="105.014" y2="35.8423" gradientUnits="userSpaceOnUse">
<stop stop-color="#F1647B"/>
<stop offset="0.36" stop-color="#F26D77"/>
<stop offset="0.95" stop-color="#F5876D"/>
<stop offset="0.99" stop-color="#F5896C"/>
</linearGradient>
<linearGradient id="paint2_linear_3_587" x1="136.806" y1="0.0747293" x2="136.806" y2="35.842" gradientUnits="userSpaceOnUse">
<stop stop-color="#F1647B"/>
<stop offset="0.36" stop-color="#F26D77"/>
<stop offset="0.95" stop-color="#F5876D"/>
<stop offset="0.99" stop-color="#F5896C"/>
</linearGradient>
<linearGradient id="paint3_linear_3_587" x1="146.741" y1="0.0748596" x2="146.741" y2="35.8421" gradientUnits="userSpaceOnUse">
<stop stop-color="#F1647B"/>
<stop offset="0.36" stop-color="#F26D77"/>
<stop offset="0.95" stop-color="#F5876D"/>
<stop offset="0.99" stop-color="#F5896C"/>
</linearGradient>
<linearGradient id="paint4_linear_3_587" x1="156.675" y1="0.0747293" x2="156.675" y2="35.842" gradientUnits="userSpaceOnUse">
<stop stop-color="#F1647B"/>
<stop offset="0.36" stop-color="#F26D77"/>
<stop offset="0.95" stop-color="#F5876D"/>
<stop offset="0.99" stop-color="#F5896C"/>
</linearGradient>
<linearGradient id="paint5_linear_3_587" x1="176.69" y1="8.0217" x2="176.69" y2="49.7479" gradientUnits="userSpaceOnUse">
<stop stop-color="#F1647B"/>
<stop offset="0.36" stop-color="#F26D77"/>
<stop offset="0.95" stop-color="#F5876D"/>
<stop offset="0.99" stop-color="#F5896C"/>
</linearGradient>
<linearGradient id="paint6_linear_3_587" x1="209.328" y1="0.0748596" x2="209.328" y2="35.8421" gradientUnits="userSpaceOnUse">
<stop stop-color="#F1647B"/>
<stop offset="0.36" stop-color="#F26D77"/>
<stop offset="0.95" stop-color="#F5876D"/>
<stop offset="0.99" stop-color="#F5896C"/>
</linearGradient>
<linearGradient id="paint7_linear_3_587" x1="235.014" y1="0.0748596" x2="235.014" y2="35.8421" gradientUnits="userSpaceOnUse">
<stop stop-color="#F1647B"/>
<stop offset="0.36" stop-color="#F26D77"/>
<stop offset="0.95" stop-color="#F5876D"/>
<stop offset="0.99" stop-color="#F5896C"/>
</linearGradient>
<linearGradient id="paint8_linear_3_587" x1="39.1391" y1="9.48074" x2="39.1391" y2="13.0817" gradientUnits="userSpaceOnUse">
<stop stop-color="#F1647B"/>
<stop offset="0.36" stop-color="#F26D77"/>
<stop offset="0.95" stop-color="#F5876D"/>
<stop offset="0.99" stop-color="#F5896C"/>
</linearGradient>
<linearGradient id="paint9_linear_3_587" x1="39.1391" y1="9.48074" x2="39.1391" y2="13.0817" gradientUnits="userSpaceOnUse">
<stop stop-color="#F1647B"/>
<stop offset="0.36" stop-color="#F26D77"/>
<stop offset="0.95" stop-color="#F5876D"/>
<stop offset="0.99" stop-color="#F5896C"/>
</linearGradient>
<linearGradient id="paint10_linear_3_587" x1="22.0333" y1="0.246735" x2="22.0333" y2="49.673" gradientUnits="userSpaceOnUse">
<stop stop-color="#F1647B"/>
<stop offset="0.36" stop-color="#F26D77"/>
<stop offset="0.95" stop-color="#F5876D"/>
<stop offset="0.99" stop-color="#F5896C"/>
<stop offset="0.9901" stop-color="#F5896C"/>
</linearGradient>
</defs>
</svg>
